<?xml version="1.0" encoding="UTF-8"?>
<!DOCTYPE svg PUBLIC "-//W3C//DTD SVG 1.1//EN" "http://www.w3.org/Graphics/SVG/1.1/DTD/svg11.dtd">
<!-- Creator: CorelDRAW -->
<svg xmlns="http://www.w3.org/2000/svg" xml:space="preserve" width="483mm" height="330mm" version="1.1" style="shape-rendering:geometricPrecision; text-rendering:geometricPrecision; image-rendering:optimizeQuality; fill-rule:evenodd; clip-rule:evenodd"
viewBox="0 0 48300 33000"
 xmlns:xlink="http://www.w3.org/1999/xlink"
 xmlns:xodm="http://www.corel.com/coreldraw/odm/2003">
 <defs>
  <style type="text/css">
   <![CDATA[
    .fil0 {fill:none}
    .fil2 {fill:white}
    .fil1 {fill:white;fill-rule:nonzero}
   ]]>
  </style>
 </defs>
 <g id="Layer_x0020_1">
  <metadata id="CorelCorpID_0Corel-Layer"/>
  <rect class="fil0" x="20834.09" y="13191.02" width="6621.02" height="6621.02"/>
  <g id="_105553543193280">
   <path class="fil1" d="M24247.78 15044.37c0,584.72 -164.63,992.04 -493.89,1221.95 -303.72,212.89 -720.97,319.33 -1251.76,319.33l-1204.93 0 0 -80.9 281.01 0 0 -2818.59 -281.01 0 0 -80.89 1315.63 0c544.98,0 953.72,111.41 1226.21,334.23 272.49,222.81 408.74,591.1 408.74,1104.87zm-1839.32 1460.38l161.79 0c286.69,0 491.76,-101.47 615.24,-304.42 123.47,-202.95 185.21,-542.86 185.21,-1019.72l0 -246.94c0,-638.66 -122.06,-1023.27 -366.16,-1153.84 -116.38,-62.44 -281.01,-93.67 -493.9,-93.67l-102.18 0 0 2818.59z"/>
   <path class="fil1" d="M24386.29 15924.66l1273.05 0c394.55,0 690.46,53.22 887.73,159.66 197.27,106.44 295.91,285.98 295.91,538.6 0,388.87 -234.17,621.62 -702.52,698.26l0 8.51c567.69,70.97 851.54,317.91 851.54,740.84 0,309.39 -116.38,525.83 -349.13,649.3 -232.76,123.47 -567.69,185.21 -1004.82,185.21l-1251.76 0 0 -80.9 276.75 0 0 -2818.59 -276.75 0 0 -80.89zm1107 1473.16l0 1426.32 200.11 0c156.12,0 265.4,-53.93 327.84,-161.79 62.45,-107.86 93.67,-266.81 93.67,-476.86l0 -225.66c0,-187.34 -38.32,-327.84 -114.95,-421.51 -76.64,-93.67 -212.89,-140.5 -408.74,-140.5l-97.93 0zm0 -1392.27l0 1311.37 110.7 0c147.6,0 250.49,-44.7 308.68,-134.12 58.19,-89.41 87.29,-226.36 87.29,-410.86l0 -200.11c0,-210.05 -25.55,-356.94 -76.64,-440.68 -51.09,-83.73 -149.02,-125.6 -293.78,-125.6l-136.25 0z"/>
   <path class="fil1" d="M22959.04 19338.29c80.99,0 143.39,-38.85 187.19,-116.53 43.8,-77.69 65.71,-173.56 65.71,-287.61 0,-114.05 -43.81,-229.75 -131.41,-347.11 -125.62,143.8 -298.35,215.7 -518.19,215.7 -219.83,0 -394.63,-37.19 -524.38,-111.57 -129.76,-74.38 -194.63,-191.73 -194.63,-352.07 0,-110.74 29.75,-200 89.26,-267.77 59.5,-67.77 159.5,-117.35 300,-148.76 -145.46,-132.23 -218.19,-276.45 -218.19,-432.65 0,-156.2 54.96,-274.38 164.88,-354.55 109.92,-80.16 246.7,-120.24 410.34,-120.24 163.63,0 286.36,29.75 368.18,89.25 81.82,59.51 122.73,139.67 122.73,240.5 0,175.21 -133.06,309.09 -399.18,401.66 33.06,21.48 93.39,59.5 181,114.05 183.47,119.01 313.22,214.87 389.25,287.6 24.8,-117.35 38.85,-238.02 42.15,-361.98l-195.87 0 0 -49.59 431.41 0 0 49.59 -173.55 0c-3.31,155.37 -19.01,295.04 -47.11,419.01 71.08,79.34 124.79,155.37 161.16,228.1 36.36,72.73 54.54,164.46 54.54,275.21 0,178.51 -62.81,338.02 -188.43,478.51 -125.62,140.5 -268.59,210.75 -428.93,210.75 -107.44,0 -190.91,-22.31 -250.41,-66.94 -59.51,-44.63 -89.26,-101.66 -89.26,-171.08 0,-69.42 19.42,-123.55 58.27,-162.4 38.84,-38.84 88.01,-58.26 147.52,-58.26 132.23,0 198.35,59.5 198.35,178.51 0,24.8 -4.96,54.55 -14.88,89.26l-86.78 0c-29.75,87.6 0,131.41 89.26,131.41zm-337.19 -600.01c175.21,0 314.05,-67.77 416.53,-203.31 -76.03,-79.34 -182.65,-165.29 -319.84,-257.85 -236.36,-155.37 -386.78,-261.16 -451.24,-317.36 -24.79,52.89 -37.19,160.33 -37.19,322.32 0,161.98 32.23,278.51 96.69,349.59 64.47,71.07 162.81,106.61 295.05,106.61zm-44.63 -1671.09c-62.81,0 -116.53,19.42 -161.16,58.27 -44.63,38.84 -66.94,100.41 -66.94,184.71 0,84.3 19.83,153.72 59.5,208.27 39.67,54.54 115.71,120.66 228.1,198.34 69.43,-36.36 112.81,-80.16 130.17,-131.4 17.36,-51.24 26.03,-126.45 26.03,-225.62 0,-195.05 -71.9,-292.57 -215.7,-292.57z"/>
   <g>
    <path class="fil2" d="M24909.4 14974.32c0,40.96 29.04,42.63 50.7,27.71l157.16 -123.94c206.95,-155.06 332.76,-198.43 569.27,-273.77 53.01,-16.89 176.1,-53 227.57,-57.29 -4.01,3.49 0.33,1.48 -9.32,6.08l-36.43 13.62c-171.3,62.07 -426.09,172.56 -569.62,281.1 -25.18,19.04 -51.18,35.22 -74.67,56.21 -11.69,10.44 -23.16,19.66 -35.88,29.56 -7.98,6.2 -9.2,8.15 -16.02,14.78 -8.58,8.36 -10.54,8.36 -19.11,15.53 -19.31,16.14 -48.11,46.24 -65.67,65.22 -93.31,100.89 -150.22,186.45 -212.63,310.89 -17.19,34.27 -65.44,150.51 -65.44,196.32 0,29.4 29.65,47.06 56.06,37.14 28.02,-10.52 29.08,-37.59 37.09,-67.17 20.96,-77.36 68.72,-181.22 114.62,-247.23 10.02,-14.39 11.68,-17.19 32.35,-21.54 31.96,-6.74 53.64,-12.54 86.86,-17.08 28.84,-3.93 63.49,-7.45 93.17,-10.76l99.51 -4.42c68.32,0.26 225.89,-8.14 288.79,-23.02 151.94,-35.96 174.97,-48.81 303.99,-115.6 63.76,-33 128.52,-82.51 184.28,-127.52 11.87,-9.58 15.45,-12.39 26.48,-23.57 11.22,-11.38 17.98,-14.29 28.99,-24.9 18.48,-17.78 33.71,-33.92 51.89,-52.04l176.8 -238.95c62.77,-105.49 163.89,-300.33 231.62,-391.98 16.87,-22.83 42.93,-52.23 42.93,-72.56 0,-53.22 -61.02,-20.2 -85.97,-8.98 -99.94,44.95 -290,73.29 -403.14,81.9 -27.65,2.1 -48.73,1.76 -76.17,4.66 -335.07,35.38 -619.72,34.58 -880.97,254.61 -45.66,38.46 -47.18,44.24 -82.9,82.64 -13.97,15.01 -25.21,26.84 -38.14,42.68l-66.5 95.19c-44.71,73.01 -76.5,136.57 -103.82,219.53 -4.87,14.81 -17.73,52.86 -17.73,66.95z"/>
    <path class="fil2" d="M25194.25 14069.7l-7.69 -3.85 7.69 3.85zm-7.69 -3.85zm7.69 3.85l-7.69 -3.85zm7.69 3.85c17.5,4.08 43.72,19.83 59.37,29.17l222.22 139.82c19.05,10.39 39.08,-2.41 72.54,-11.18l150.15 -34.62c-10.97,-20.74 -21.96,-42.73 -34.6,-61.64 -22.5,-33.69 -37.37,-56.53 -64.55,-85.57 -9.63,-10.29 -12.29,-16.31 -23.01,-27.04l-53.21 -46.88c-42.53,-31.74 -73.94,-51.74 -123.6,-76.56 -43.51,-21.75 -93.65,-44.29 -140.31,-59.86l-303.21 -97.14c-64.67,-21.59 -146.8,-58.51 -201.21,-99.05 -7.44,-5.54 -21.59,-17.09 -29.96,-20.06 -15.46,-5.47 -19.19,3.84 -31.04,11.78 0,28.47 8.19,38.86 17.05,59.94 23.03,54.79 63.88,177.51 80,235.65 4.84,17.45 12.09,43.67 18.97,61.87l43.98 117.69c38.93,98.17 90.5,165.71 150.12,242.52 24.26,31.26 94.83,97.54 124.86,117.66 12.53,-18.71 47.51,-44.34 66.3,-60.74 29.16,-25.45 77.9,-58.36 112.94,-79.53 15.11,-9.12 26.62,-14.61 41.76,-23.68l90.81 -40.07c-7.46,-11.14 -17.45,-16.63 -27.94,-25.96l-218.43 -166.52z"/>
   </g>
  </g>
 </g>
</svg>
